<svg width="25" height="24" fill="none" xmlns="http://www.w3.org/2000/svg"><path fill-rule="evenodd" clip-rule="evenodd" d="M12.5 6.48c1.69 0 2.83.73 3.48 1.34l2.54-2.48C16.96 3.89 14.93 3 12.5 3 8.98 3 5.94 5.02 4.46 7.96l2.91 2.26c.73-2.17 2.75-3.74 5.13-3.74z" fill="#EA4335"/><path fill-rule="evenodd" clip-rule="evenodd" d="M21.14 12.2c0-.74-.06-1.28-.19-1.84H12.5v3.34h4.96c-.1.83-.64 2.08-1.84 2.92l2.84 2.2c1.7-1.57 2.68-3.88 2.68-6.62z" fill="#4285F4"/><path fill-rule="evenodd" clip-rule="evenodd" d="M7.38 13.78a5.54 5.54 0 01-.3-1.78c0-.62.11-1.22.29-1.78L4.46 7.96A9.008 9.008 0 003.5 12c0 1.45.35 2.82.96 4.04l2.92-2.26z" fill="#FBBC05"/><path fill-rule="evenodd" clip-rule="evenodd" d="M12.5 21c2.43 0 4.47-.8 5.96-2.18l-2.84-2.2c-.76.53-1.78.9-3.12.9-2.38 0-4.4-1.57-5.12-3.74l-2.91 2.26C5.95 18.98 8.98 21 12.5 21z" fill="#34A853"/></svg>