<svg width="25" height="24" viewBox="0 0 25 24" fill="none" xmlns="http://www.w3.org/2000/svg">
<path fill-rule="evenodd" clip-rule="evenodd" d="M12.5 6.48C14.19 6.48 15.33 7.21 15.98 7.82L18.52 5.34C16.96 3.89 14.93 3 12.5 3C8.97999 3 5.93999 5.02 4.45999 7.96L7.36999 10.22C8.09999 8.05 10.12 6.48 12.5 6.48Z" fill="#EA4335"/>
<path fill-rule="evenodd" clip-rule="evenodd" d="M21.14 12.2C21.14 11.46 21.08 10.92 20.95 10.36H12.5V13.7H17.46C17.36 14.53 16.82 15.78 15.62 16.62L18.46 18.82C20.16 17.25 21.14 14.94 21.14 12.2Z" fill="#4285F4"/>
<path fill-rule="evenodd" clip-rule="evenodd" d="M7.38 13.78C7.19 13.22 7.08 12.62 7.08 12C7.08 11.38 7.19 10.78 7.37 10.22L4.46 7.96001C3.85 9.18001 3.5 10.55 3.5 12C3.5 13.45 3.85 14.82 4.46 16.04L7.38 13.78Z" fill="#FBBC05"/>
<path fill-rule="evenodd" clip-rule="evenodd" d="M12.5 21C14.93 21 16.97 20.2 18.46 18.82L15.62 16.62C14.86 17.15 13.84 17.52 12.5 17.52C10.12 17.52 8.1 15.95 7.38 13.78L4.47 16.04C5.95 18.98 8.98 21 12.5 21Z" fill="#34A853"/>
</svg>
